<svg aria-hidden="true" style="position:absolute;width:0;height:0" xmlns="http://www.w3.org/2000/svg" overflow="hidden"><defs><symbol id="icon-cart" viewBox="0 0 40 32"><path d="M40.003 7.07l-5.656 12.544a1.865 1.865 0 01-1.592 1.104h-.005l-16.238 1.083.935 2.684h17.698a3.763 3.763 0 11-3.763 3.765H13.821a3.764 3.764 0 11-3.763-3.765h3.398L6.203 3.788h-4.31a1.882 1.882 0 110-3.764h5.656c.816.006 1.51.525 1.775 1.25l.004.013 1.095 3.131h27.856c1.04 0 1.883.842 1.884 1.881a2.14 2.14 0 01-.165.783l.005-.014zM11.745 8.181l3.467 9.937 16.17-1.079 3.991-8.858H11.745z"/></symbol><symbol id="icon-glass" viewBox="0 0 32 32"><path d="M31.101 26.862a3 3 0 11-4.248 4.238l-8.769-8.78A11.896 11.896 0 0111.952 24C5.307 24-.08 18.613-.08 11.968S5.307-.064 11.952-.064c6.645 0 12.032 5.387 12.032 12.032 0 2.255-.62 4.365-1.7 6.169l.03-.055 8.788 8.78zm-19.1-23.846a8.987 8.987 0 108.987 8.987 8.993 8.993 0 00-8.987-8.987z"/></symbol><symbol id="icon-creativity_3" viewBox="0 0 32 32"><path d="M30.968 25.29H20.645v3.097l2.065 2.065H9.291l2.065-2.065V25.29h-9.29a2.062 2.062 0 01-2.059-1.022l-.005-.01V3.613c0-1.14.924-2.065 2.065-2.065H30.97a2.068 2.068 0 011.032 2.075l.001-.011v20.645c-.211.46-.572.821-1.019 1.027l-.013.005zM29.935 3.613H2.064v17.548h27.871V3.613zm-16.516 7.226a2.073 2.073 0 011.047.003l-.014-.003 1.032 1.032 2.065-3.097a2.19 2.19 0 013.097 3.097L16.517 16c-.38.43-.933.699-1.548.699s-1.168-.269-1.546-.697L13.421 16l-2.065-2.065a2.066 2.066 0 011.018-3.093l.014-.005z"/></symbol><symbol id="icon-digital_6" viewBox="0 0 32 32"><path d="M31 32H2a1.997 1.997 0 01-1.994-.99L.001 31V2a2 2 0 012-2h29A2.003 2.003 0 0132 2.011l.001-.01v29a2.014 2.014 0 01-.988.995l-.012.005zM29 3H3v26h26V3zM7 5h5a1.997 1.997 0 01.002 2.998L12 8H8v4a1.997 1.997 0 01-2.998.002L5 12V5h2zM5 20a1.997 1.997 0 012.998-.002L8 20v5h4a1.997 1.997 0 01.002 2.998L12 28H5v-8zM20 5h8v7a1.997 1.997 0 01-2.998.002L25 12V8h-5a1.997 1.997 0 01-.002-2.998L20 5zm0 20h5v-5a1.997 1.997 0 012.998-.002L28 20v8h-8a1.997 1.997 0 01-.002-2.998L20 25z"/></symbol><symbol id="icon-html_css_5" viewBox="0 0 32 32"><path d="M32 16.5a1.581 1.581 0 01-2.997 1.011L29 17.5l-13-13-13 13a2.014 2.014 0 01-.988.995L2 18.5a2 2 0 01-2-2 .994.994 0 01.003-1.005L0 15.5l15-15a1.965 1.965 0 011.014.003L16 .5a.994.994 0 011.005.003L17 .5l6 6v-1a1.997 1.997 0 012.998-.002L26 5.5v4l6 6a.994.994 0 01-.003 1.005L32 16.5zm-3 3v10a1.997 1.997 0 01-.99 1.994l-.01.005h-3v-12h-6v12H5a2 2 0 01-2-2v-10l13-13zm-15 0H8v6h6v-6z"/></symbol><symbol id="icon-photography_1" viewBox="0 0 32 32"><path d="M31 10.5c-1.662-4.128-4.872-7.338-8.893-8.962L22 1.5a6.364 6.364 0 119 9zm0 6l.001.201c0 3.816-1.527 7.276-4.004 9.802l.002-.002 2 2a1.119 1.119 0 11-1.006 1.997l.006.003c-.287.168-.632.268-1 .268s-.713-.099-1.009-.273l.009.005-2-2c-2.232 1.571-5.006 2.511-8 2.511s-5.768-.94-8.045-2.541l.045.03-2 2a2 2 0 11-3.009-1.995l.009-.005 2-2a13.907 13.907 0 01-2.926-8.566c0-7.732 6.268-14 14-14 7.227 0 13.175 5.476 13.921 12.505l.005.061zm-15-11c-6.609.024-11.958 5.387-11.958 12 0 6.627 5.373 12 12 12s12-5.373 12-12c0-.352-.015-.7-.045-1.045L28 16.5c-.532-6.183-5.683-11-11.958-11h-.044H16zm6 13h-6a2.003 2.003 0 01-.999-2.011l-.001.01v-8a1.997 1.997 0 012.998-.002l.002.002v7h4a1.997 1.997 0 01.002 2.998l-.002.002zm-21-8A6 6 0 016.024.502L6 .5a5.967 5.967 0 014.02 1.013L9.999 1.5c-4.128 1.662-7.338 4.872-8.962 8.893l-.038.107z"/></symbol><symbol id="icon-seo_4" viewBox="0 0 32 32"><path d="M31 26l-14 6c-.287.168-.632.268-1 .268s-.713-.099-1.009-.273L15 32 1 26a2.014 2.014 0 01-.995-.988L0 25V2A1.997 1.997 0 01.99.006L1 .001a1.965 1.965 0 011.014.003L2 .001l14 6 14-6a2 2 0 012 2v23a2.014 2.014 0 01-.988.995l-.012.005zM15 9L3 4v20l12 4V9zm14-5L18 9v19l11-4V4zm-9 7l5-3a1.965 1.965 0 011.014.003L26 8a2.004 2.004 0 01.995 3.007L27 11l-6 2a1.98 1.98 0 01-1.014-.004l.014.003c-.168-.287-.268-.632-.268-1s.099-.713.273-1.009l-.005.009zm0 5l5-2c.205-.446.554-.795.988-.995L26 13a2.004 2.004 0 01.995 3.007L27 16l-6 3a.994.994 0 01-1.005-.003L20 19a1.997 1.997 0 01-.002-2.998L20 16zm0 6l5-3a1.965 1.965 0 011.014.003L26 19a2.005 2.005 0 011.338 1.887c0 .415-.126.8-.343 1.12L27 22l-6 2a1.965 1.965 0 01-1.014-.003L20 24c-.168-.287-.268-.632-.268-1s.099-.713.273-1.009L20 22zM6 8a1.965 1.965 0 011.014.003L7 8l5 3a1.997 1.997 0 01-.99 1.994l-.01.005-6-2a2.001 2.001 0 01.986-2.996L6 7.999zm0 5c.446.205.795.554.995.988L7 14l5 2a2.001 2.001 0 01-.986 2.996L11 19l-6-3a1.997 1.997 0 01.99-1.994l.01-.005zm0 6a1.965 1.965 0 011.014.003L7 19l5 3a1.997 1.997 0 01-.99 1.994l-.01.005-6-2a2.001 2.001 0 01.986-2.996L6 18.999z"/></symbol><symbol id="icon-web_design_2" viewBox="0 0 32 32"><path d="M31 32H2a1.997 1.997 0 01-1.994-.99L.001 31V2a2 2 0 012-2h29A2.003 2.003 0 0132 2.011l.001-.01v29a2.014 2.014 0 01-.988.995l-.012.005zM29 3H3v26h26V3zM5 16l4-2a1.994 1.994 0 012.009.005L11 14l6 4 8-5a2 2 0 112 2l-9 6a.994.994 0 01-.003 1.005L18 22a2.014 2.014 0 01-.995-.988L17 21l-7-4-3 2a.994.994 0 01-1.005-.003L6 19a2.005 2.005 0 01-1.338-1.887c0-.415.126-.8.343-1.12L5 16z"/></symbol></defs></svg>